<?xml version="1.0" encoding="utf-8"?>
<!-- Generator: Adobe Illustrator 21.0.0, SVG Export Plug-In . SVG Version: 6.00 Build 0)  -->
<svg version="1.1" id="Слой_1" xmlns="http://www.w3.org/2000/svg" xmlns:xlink="http://www.w3.org/1999/xlink" x="0px" y="0px"
	 viewBox="0 0 36 36" style="enable-background:new 0 0 36 36;" xml:space="preserve">
<style type="text/css">
	.st0{fill:#9858AE;}
	.st1{fill:#1A9777;}
	.st2{fill:#1794D4;}
	.st3{fill:#D94700;}
	.st4{fill:#F4A952;}
	.st5{fill:#50BCAB;}
	.st6{fill:#B29D12;}
	.st7{fill:#C8283C;}
	.st8{fill:#1094D2;}
	.st9{fill:#FFDD00;}
	.st10{fill-rule:evenodd;clip-rule:evenodd;fill:#1A9777;}
</style>
<path class="st4" d="M27,0H9C7.3,0,6,1.3,6,3v30c0,1.7,1.3,3,3,3h18c1.7,0,3-1.3,3-3V3C30,1.3,28.7,0,27,0z M28,33c0,0.6-0.4,1-1,1
	H9c-0.6,0-1-0.4-1-1V3c0-0.6,0.4-1,1-1h18c0.6,0,1,0.4,1,1V33z M9,28h18V7H9V28z M10,8h16v19H10V8z M18,29c-1.1,0-2,0.9-2,2
	c0,1.1,0.9,2,2,2c1.1,0,2-0.9,2-2C20,29.9,19.1,29,18,29z M18,32c-0.6,0-1-0.4-1-1c0-0.6,0.4-1,1-1c0.6,0,1,0.4,1,1
	C19,31.6,18.6,32,18,32z M16,4.5C16,4.2,16.2,4,16.5,4h3C19.8,4,20,4.2,20,4.5S19.8,5,19.5,5h-3C16.2,5,16,4.8,16,4.5z"/>
</svg>
