<?xml version="1.0" encoding="utf-8"?>
<!-- Generator: Adobe Illustrator 21.0.0, SVG Export Plug-In . SVG Version: 6.00 Build 0)  -->
<svg version="1.1" id="Слой_1" xmlns="http://www.w3.org/2000/svg" xmlns:xlink="http://www.w3.org/1999/xlink" x="0px" y="0px"
	 viewBox="0 0 36 36" style="enable-background:new 0 0 36 36;" xml:space="preserve">
<style type="text/css">
	.st0{fill:#9858AE;}
	.st1{fill:#1A9777;}
	.st2{fill:#1794D4;}
	.st3{fill:#D94700;}
	.st4{fill:#F4A952;}
	.st5{fill:#50BCAB;}
	.st6{fill:#B29D12;}
	.st7{fill:#C8283C;}
	.st8{fill:#1094D2;}
	.st9{fill:#FFDD00;}
	.st10{fill-rule:evenodd;clip-rule:evenodd;fill:#1A9777;}
</style>
<path class="st4" d="M19,31h-2.2c-0.4-1.2-1.5-2-2.8-2H7c-1.3,0-2.4,0.8-2.8,2H2c-1.1,0-2,0.9-2,2v1c0,1.1,0.9,2,2,2h17
	c1.1,0,2-0.9,2-2v-1C21,31.9,20.1,31,19,31z M7,31h7c0.6,0,1,0.4,1,1H6C6,31.4,6.4,31,7,31z M19,34H2v-1h3h1h9h4V34z M22.4,15.9
	c1.7-1.7,3.1-3.5,4.4-5.2l0.4,0.4l1.4-1.4L28,9l-4-4l-4.7-4.7l-1.4,1.4l0.4,0.4c-1.7,1.3-3.5,2.8-5.3,4.4l-1-1L9.2,8.3l1,1
	c-1.6,1.7-3.1,3.5-4.4,5.3l-0.4-0.4L4,15.6l0.7,0.7l8.1,8.1l0.7,0.7l1.4-1.4l-0.4-0.4c1.7-1.3,3.5-2.8,5.3-4.4l12.8,12.8l2.8-2.8
	L22.4,15.9z M19.8,3.6l2.8,2.8l2.8,2.8c-0.3,0.5-0.7,0.9-1,1.4l-6-6C18.9,4.2,19.3,3.9,19.8,3.6z M12.8,21.6L7.2,16
	c0.3-0.5,0.7-0.9,1-1.4l6,6C13.7,21,13.3,21.3,12.8,21.6z M19.6,16c-1.5,1.5-3,2.9-4.6,4.1l-6.2-6.2c1.2-1.5,2.6-3.1,4.1-4.6
	s3-2.9,4.6-4.1l6.2,6.2C22.5,12.9,21.1,14.5,19.6,16z"/>
</svg>
