<?xml version="1.0" encoding="utf-8"?>
<!-- Generator: Adobe Illustrator 21.0.0, SVG Export Plug-In . SVG Version: 6.00 Build 0)  -->
<svg version="1.1" id="Слой_1" xmlns="http://www.w3.org/2000/svg" xmlns:xlink="http://www.w3.org/1999/xlink" x="0px" y="0px"
	 viewBox="0 0 36 36" style="enable-background:new 0 0 36 36;" xml:space="preserve">
<style type="text/css">
	.st0{fill:#9858AE;}
	.st1{fill:#1A9777;}
	.st2{fill:#1794D4;}
	.st3{fill:#D94700;}
	.st4{fill:#F4A952;}
	.st5{fill:#50BCAB;}
	.st6{fill:#B29D12;}
	.st7{fill:#C8283C;}
	.st8{fill:#1094D2;}
	.st9{fill:#FFDD00;}
	.st10{fill-rule:evenodd;clip-rule:evenodd;fill:#1A9777;}
</style>
<path class="st4" d="M19,30.2c0.3,0.6,0.7,2,0,2.4c0.1-0.5-0.1-1.7-0.3-2.5c-0.1-0.5-0.5-2.2-0.4-2.5C18.4,28.3,18.6,29.3,19,30.2z
	 M15.3,29.8c-0.1,0.2-0.2,0.7,0.2,0.7c0.2-0.6,0.5-0.9,0.8-1.3c0.2-0.3,0.6-0.8,0.8-1.1C16.6,28.8,15.6,29.4,15.3,29.8z M17,30.2
	c-0.3,0.6-0.7,2.1,0,2.4c-0.1-0.5,0.1-1.7,0.3-2.5c0.1-0.5,0.6-2.2,0.4-2.5C17.6,28.3,17.4,29.3,17,30.2z M21.5,31.1
	c-0.1,0.2-0.4,0.2-0.5,0.3c0,0.2,0,0.2,0,0.4C21.4,31.6,21.7,31.4,21.5,31.1z M21.4,28.6c0.5,0.3,0.9,0.7,1.3,0.8
	c0.3,0,0.5-0.4,0.2-0.7h0c-0.2-0.1-0.4-0.1-0.6-0.1C22.1,28.7,21.7,28.7,21.4,28.6z M20.9,28.4C20.9,28.4,20.9,28.5,20.9,28.4
	c0.1,0.2,0.3,0.2,0.5,0.2c0,0-0.1,0-0.1-0.1C21.2,28.5,21,28.5,20.9,28.4z M22.9,28.8c0.2,0.1,0.4,0.1,0.5,0.2
	C23.3,28.8,23.1,28.8,22.9,28.8L22.9,28.8z M21.1,27.7L21.1,27.7c-0.1-0.1-0.2,0-0.3,0c-0.1,0-0.3,0-0.4-0.1c0,0-0.1,0-0.1-0.1
	c0.2,0.2,0.2,0.4,0.2,0.7c-0.2-0.3-0.5-0.4-0.8-0.4h-0.1c0.5,0.3,0.9,0.4,1.3,0.6C20.9,28.2,21.1,28.1,21.1,27.7z M20.1,27.3
	c0.1,0.1,0.1,0.1,0.2,0.2C20.3,27.5,20.2,27.4,20.1,27.3z M21,26.7c0.2,0,0.5-0.1,0.5-0.5c0.1-0.5-0.3-0.9-0.9-0.9
	c-0.1,0-0.2,0-0.3,0c-0.6,0.1-1.3,1.3-0.6,1.8c0.1,0.1,0.3,0.2,0.4,0.2c-0.1-0.1-0.2-0.3-0.2-0.4C20.6,26.7,20.8,26.7,21,26.7z
	 M34.4,13.4c0,0.4-0.1,0.8-0.3,1.1c0.2,0.3,0.2,0.6,0.2,1c-0.1,0.4-0.2,0.8-0.5,1.2c0.3,0.5,0.3,1.1-0.1,1.6
	c-0.2,0.1-0.3,0.3-0.4,0.4c0.2,0.6,0,1.2-0.5,1.6c-0.1,0.1-0.2,0.1-0.3,0.2c0.1,0.7-0.2,1.3-0.9,1.6c0,0.1-0.2,0.1-0.3,0.2
	c-0.1,0.7-0.6,1.2-1.3,1.3c0.2,0.2,0.3,0.5,0.3,0.8v0.3c0.6,0.5,1,1.1,1.2,1.8c0,0.1,0.1,0.1,0.1,0.2c0.1,0.3,0.2,0.6,0.2,0.9v0.1
	c0,0.3-0.1,0.6-0.3,0.9c-0.1,0.2-0.2,0.4-0.3,0.5c-0.2,0.3-0.4,0.5-0.6,0.8c-0.1,0.2-0.3,0.4-0.5,0.6c-0.2,0.2-0.5,0.3-0.7,0.4
	c-0.2,0.1-0.4,0.3-0.8,0.4c-0.2,0.1-0.4,0.1-0.6,0.1h-0.1c-0.2,0.1-0.5,0.3-1,0.3c-0.1,0-0.1,0-0.1,0c-0.4,0-0.7-0.2-0.9-0.3
	c-0.2,0-0.3,0-0.4-0.1c-0.1-0.1-0.2-0.1-0.3-0.2c0.1,0.4,0.1,0.9,0,1.3c-0.1,0.3-0.3,0.6-0.4,0.8c0,0.4-0.1,0.7-0.4,1
	c-0.3,0.3-0.7,0.5-1.1,0.5c-0.1,0-0.3-0.1-0.4-0.1h-0.1c-0.1,0-0.1,0.1-0.2,0.1c-0.4,0.2-0.8,0.3-1.2,0.3c-0.1,0-0.2,0-0.3,0
	c-0.5,0.4-1.1,0.6-1.7,0.6h-0.1h-0.1c-0.2,0.2-0.4,0.4-0.7,0.5c-0.2,0.1-0.4,0.2-0.7,0.2c-0.3,0-0.5-0.1-0.7-0.2
	c-0.2-0.1-0.5-0.3-0.7-0.5h-0.1h-0.1c-0.6,0-1.2-0.2-1.7-0.6c-0.1,0-0.2,0-0.3,0c-0.4,0-0.8-0.1-1.2-0.3c-0.1,0-0.1-0.1-0.2-0.1
	h-0.1c-0.1,0.1-0.3,0.1-0.4,0.1c-0.4,0-0.8-0.2-1.1-0.5c-0.2-0.3-0.4-0.6-0.4-1c-0.1,0-0.1-0.1-0.1-0.1c-0.3,0.1-0.5,0.2-0.8,0.2
	c-0.4,0-0.8-0.2-1.1-0.4c-0.2-0.1-0.4-0.2-0.5-0.4C8.3,32,8,31.8,7.9,31.5c-0.2-0.1-0.4-0.2-0.5-0.4C7.3,31,7.2,30.9,7,30.7
	c-0.1-0.2-0.2-0.4-0.3-0.6c-0.2-0.2-0.4-0.6-0.4-0.9c0-0.4,0.1-0.8,0.2-1.1c0-0.2-0.1-0.3-0.1-0.4c-0.1-0.2-0.2-0.3-0.2-0.5
	C6.1,27.1,6,26.8,6,26.6c0-0.2-0.1-0.4-0.1-0.6l-1.5-3.6c-0.1-0.2-0.2-0.3-0.3-0.5c-0.2-0.1-0.3-0.2-0.4-0.3l-0.3-0.2
	c-0.1,0-0.1,0-0.1,0c-0.2-0.1-0.3-0.2-0.5-0.4c-0.8-0.9-0.7-2-0.6-2.4c0.1-0.1,0.1-0.3,0.2-0.4c0-0.1-0.1-0.1-0.1-0.2
	C2,17.6,1.9,17,2.2,16.5c-0.3-0.4-0.4-0.8-0.5-1.2c-0.1-0.4,0-0.7,0.2-1c-0.2-0.4-0.3-0.7-0.3-1.1c0-0.4,0.1-0.8,0.4-1.1
	c-0.1-0.3-0.1-0.7-0.1-1c0.1-0.4,0.2-0.8,0.5-1c-0.1-0.9,0-1.7,0.5-2.4C3,7.7,3.1,7.6,3.2,7.5c0-1.1,0.5-2.2,1.6-2.7
	c0.3-0.1,0.5-0.2,0.7-0.2s0.3,0,0.5,0.1s0.4,0.2,0.6,0.4C6.9,4.7,7.4,4.5,8,4.3c0.7-1,1.5-1.2,2-1.2c0.3,0,0.6,0.1,0.9,0.2
	c0.1,0.1,0.3,0.2,0.4,0.3c0.1,0,0.1,0.1,0.2,0.1h0.1c0.1,0,0.2,0.1,0.4,0.2c0.3-0.3,0.6-0.4,1-0.4h0.7c0.3,0,0.6,0,0.8,0.2
	c0.1-0.1,0.1-0.2,0.2-0.3c0.2-0.6,0.7-0.9,1.3-1.2V1.6c0-0.4,0.1-0.7,0.4-1C16.7,0.2,17,0,17.5,0h0.9c0.4,0,0.7,0.1,1,0.4
	C19.8,0.7,20,1.1,20,1.6v0.5c0.6,0.3,1,0.7,1.3,1.2c0.1,0.1,0.2,0.2,0.2,0.3c0.2-0.1,0.5-0.2,0.8-0.2H23c0.4,0,0.7,0.2,1,0.4
	c0.1-0.1,0.3-0.2,0.4-0.2h0.1c0.1,0,0.1-0.1,0.2-0.1c0.1-0.1,0.2-0.2,0.4-0.3C25.4,3.1,25.7,3,25.9,3c0.5,0,1.3,0.2,2,1.2
	c0.8,0.2,1.2,0.5,1.5,0.9c0.2-0.2,0.4-0.3,0.6-0.4c0.1-0.1,0.3-0.1,0.5-0.1c0.3,0,0.5,0.1,0.7,0.2c1.1,0.5,1.6,1.6,1.6,2.7
	c0.1,0,0.2,0.2,0.3,0.3c0.5,0.7,0.6,1.5,0.5,2.4c0.3,0.3,0.5,0.6,0.5,1c0,0.3,0,0.7-0.1,1C34.3,12.4,34.5,12.8,34.4,13.4z M7.2,7.4
	c0,0.2,0.1,0.5,0.4,0.7C7.5,7.9,7.5,7.6,7.7,7.6c0.1,0,0.1,0,0.1,0c0.2,0.1,0.4,0.1,0.5,0.1c0.2,0,0.4-0.1,0.6-0.4
	c0,0.2-0.2,0.4-0.3,0.6c-0.2,0.5,0.1,1,0.7,1C9,8.6,9,8.3,9,8.3c0.1-0.4,0.4-0.5,0.5-0.9c0.2-0.8-0.6-0.9-0.4-1.7
	c0-0.1,0.1-0.3,0.1-0.4c0.5,0,0.8-0.2,1.1-0.4c0.4,0.7-0.7,1.6,0,2.3c0.2,0.2,0.6,0.4,1,0.5c-0.2-0.2-0.4-0.6-0.5-1
	c-0.1-0.3,0.1-0.8,0.2-1c0.1-0.3,0.4-0.9,0.1-1.3c-0.1-0.2-0.3-0.2-0.5-0.3C10.4,4.1,10.3,4,10,3.8c-0.1,0-0.1,0-0.2,0
	C9.5,3.8,9.2,4,8.9,4.5C8.8,4.6,8.7,4.7,8.6,4.8C7.9,4.9,7.6,5.1,7.5,5.5C7.4,6.3,8,6.3,8,6.8C8,7,8,7,7.9,7C7.8,7,7.8,6.9,7.7,6.9
	H7.6C7.4,6.9,7.2,7.1,7.2,7.4z M31.3,14.7c0.9-0.3,1.6-1,1.8-1.6c-0.2-0.1-0.4-0.1-0.6-0.1c-0.3,0-0.6,0-0.9,0.1
	c0.5-0.3,1.3-1,1.2-1.9c0,0-0.1,0-0.2,0c-0.4,0-1.1,0.3-1.4,0.4c1.1-0.7,1.5-2.1,0.9-3c-0.3,0.2-1.9,1.8-2.2,2
	c0.8-1,1.2-1.7,1.4-2.3c0.2-0.7,0.3-1.9-0.6-2.3c-0.4,0.9-1.8,3.3-2.6,4.3c0-0.1-0.1-0.2-0.2-0.2c-0.2,0.6-0.8,1.4-1.3,1.8
	c-0.1,0-0.1-0.2-0.2-0.3c-0.5,0.8-1.9,1.9-2.4,2.6c-0.4,0.6-0.4,1,0.1,1.5c0.2,0.2,0.6,0.5,0.3,1c-0.2,0.4-0.7,0.6-1.1,0.6
	c-0.4,0-0.7-0.2-0.9-0.5c0.7-0.1,1-1.1,0.5-1.6c-0.1,0.2-0.4,0.4-0.7,0.4c-0.2,0-0.3-0.1-0.4-0.1c-0.3-0.1-0.5-0.3-0.6-0.4
	c0.1,0.1,0.2,0.1,0.3,0.1c0.4,0,0.8-0.3,0.7-0.8c-0.2,0.2-0.4,0.2-0.5,0.2c-0.3,0-0.5-0.2-0.6-0.3c-0.3-0.4-0.4-0.8-0.3-1.4
	c0.1-0.6,0.6-1.4,1-1.7c0,0,0.1,0.1,0.2,0.1c0.1,0,0.1,0,0.1,0c0.1-0.1,0.3-0.2,0.4-0.2c0.1-0.1,0.2-0.1,0.3-0.1
	c0.2,0,0.4,0.1,0.6,0.2c0.4,0.3,0.4,0.6,0.4,0.8c0.7-0.4,0.4-1-0.4-1.2c0.5,0,1,0.5,1.1,0.9c0.1,0.2,0.3,0.2,0.5,0.2
	c0.2,0,0.4,0,0.5-0.1c0.5-0.3,0.6-0.9,0.5-1c0,0.2-0.2,0.4-0.5,0.4c-0.1,0-0.1,0-0.2,0c-0.3,0-0.7-0.2-1-0.3c-0.3-0.1-0.7-0.2-1-0.2
	h-0.1c0.2-0.1,0.5-0.2,0.8-0.2c0.4,0,0.8,0.1,1,0.4c0.2-0.1,0.3-0.3,0.4-0.6c0.2-0.9-0.5-1.3-1.2-1.3c0-0.2-0.1-0.3-0.2-0.3H24
	c0-0.1-0.1-0.2-0.1-0.2c0.7-0.1,1.4-0.3,1.8-0.7c0.7-0.7-0.4-1.6,0-2.3c0.3,0.1,0.6,0.3,1.1,0.4c0,0.1,0.1,0.3,0.1,0.4
	c0.2,0.7-0.6,0.9-0.4,1.7c0.1,0.3,0.4,0.5,0.5,0.9c0,0,0.1,0.3-0.3,0.7c0.6,0,0.9-0.5,0.7-1C27.2,8.5,27,8.3,27,8.1
	c0.2,0.3,0.4,0.4,0.6,0.4c0.1,0,0.3,0,0.5-0.1c0.1,0,0.1,0,0.1,0c0.2,0,0.2,0.3,0.1,0.5c0.3-0.2,0.4-0.5,0.4-0.7
	c0-0.3-0.2-0.5-0.4-0.5h-0.1c-0.1,0-0.2,0.1-0.3,0.1c0,0-0.1-0.1-0.1-0.2c0-0.5,0.8-0.5,0.6-1.3c-0.1-0.4-0.5-0.6-1.2-0.7
	c-0.1-0.1-0.2-0.3-0.3-0.4c-0.4-0.5-0.7-0.7-0.9-0.7c-0.1,0-0.2,0-0.2,0c-0.2,0.2-0.4,0.3-0.6,0.4c-0.2,0.1-0.4,0.2-0.5,0.3
	c-0.3,0.4-0.1,0.9,0.1,1.3c0.1,0.2,0.3,0.7,0.2,1c-0.1,0.4-0.8,0.7-1.2,0.8h-0.1V8.1c0.1-0.2,0.2-0.5,0.3-0.6
	c0.3-0.7-0.2-1.1-0.8-1.2c-0.1-0.1-0.1-0.1-0.2-0.1H23v0.1h-0.1V6.1C23,6.1,23,6,23,5.9c0-0.1,0-0.2,0-0.2h0.2l-0.1-0.1
	c0-0.1,0-0.1,0-0.1c0.1,0,0.1,0,0.1,0l0.1,0.1V4.9L23.2,5c-0.1,0-0.1,0-0.1,0c0-0.1,0-0.1,0-0.1l0.1-0.1h-0.7l0.1,0.1
	c0,0.1,0,0.1,0,0.1c-0.1,0-0.1,0-0.1,0l-0.1-0.1v0.6l0.1-0.1c0.1,0,0.1,0,0.1,0c0,0.1,0,0.1,0,0.1l-0.1,0.1h0.1
	c-0.1,0-0.1,0.1-0.1,0.2c0,0.1,0,0.1,0.1,0.2v0.2h-0.1V6.1h-0.1c-0.1,0-0.2,0.1-0.2,0.1c-0.7,0.1-1.1,0.4-0.8,1.2
	c0.1,0.2,0.2,0.5,0.3,0.7v0.1c-0.6-0.2-1.8-0.9-2.1-1.3l-0.1-0.1V6.3c0.2-0.3,0.4-0.8,0.6-1.2c0.4-1.1-0.2-1.6-1.1-1.8
	c0-0.1-0.1-0.1-0.2-0.1s-0.1,0-0.2,0v0.2h-0.2V3.3h-0.1c0.1-0.1,0.2-0.2,0.2-0.4c0-0.1-0.1-0.2-0.2-0.3h0.2
	c-0.1-0.1-0.3-0.3-0.3-0.4c0.1,0.1,0.3,0.2,0.4,0.3V1.6c-0.1,0.1-0.3,0.3-0.4,0.3c0.1-0.1,0.2-0.3,0.3-0.4h-0.9
	c0.1,0.1,0.3,0.3,0.3,0.4c-0.1-0.1-0.3-0.2-0.4-0.3v0.9c0.1-0.1,0.3-0.3,0.4-0.3c-0.1,0.1-0.2,0.3-0.3,0.4h0.2
	c-0.1,0-0.2,0.2-0.2,0.3c0,0.2,0.1,0.3,0.2,0.4h-0.1v0.2h-0.2V3.3c-0.1,0-0.2,0-0.2,0c-0.1,0-0.1,0.1-0.2,0.1
	c-0.9,0.2-1.5,0.7-1.1,1.8c0.2,0.4,0.4,0.8,0.6,1.2v0.5l-0.1,0.1c-0.4,0.4-1.5,1.1-2,1.5V8.3c0.1-0.2,0.2-0.5,0.3-0.7
	c0.3-0.7-0.2-1.1-0.8-1.2C14,6.3,14,6.3,13.9,6.3h-0.1v0.1h-0.1V6.2c0.1,0,0.1-0.1,0.1-0.2c0-0.1-0.1-0.1-0.1-0.2h0.1l-0.1-0.1
	c0-0.1,0-0.1,0-0.1c0.1,0,0.1,0,0.1,0l0.1,0.1V5l-0.1,0.1c-0.1,0-0.1,0-0.1,0c0-0.1,0-0.1,0-0.1l0.1-0.1h-0.6h-0.1
	c0,0.1,0,0.1,0.1,0c0,0.1,0,0.1,0,0.1c-0.1,0-0.1,0-0.1,0L13,4.9v0.7l0.1-0.1c0.1,0,0.1,0,0.1,0c0,0.1,0,0.1,0,0.1l-0.1,0.1h0.1
	c-0.1,0-0.1,0.1-0.1,0.2c0,0.1,0,0.2,0.1,0.1v0.2h-0.1V6.1H13c-0.1,0-0.2,0.1-0.2,0.1c-0.7,0.1-1.1,0.4-0.8,1.2
	c0.1,0.2,0.2,0.5,0.3,0.7v0.2c-0.1,0-0.1,0-0.1,0c-0.1,0-0.2-0.1-0.4-0.1c-0.1,0-0.1,0.1-0.1,0.2c-0.7,0-1.3,0.4-1.2,1.3
	c0.1,0.3,0.2,0.4,0.4,0.6c0.2-0.3,0.6-0.4,1-0.4c0.3,0,0.6,0.1,0.8,0.2h-0.1c-0.4,0-0.8,0.1-1,0.2c-0.2,0.1-0.6,0.3-1,0.3
	c-0.1,0-0.1,0-0.2,0c-0.3,0-0.4-0.2-0.5-0.4c-0.1,0.2,0,0.8,0.5,1c0.1,0.1,0.3,0.1,0.5,0.1c0.1,0,0.3-0.1,0.5-0.2
	c0.2-0.1,0.6-0.6,1.2-0.6c-0.8,0.2-1,0.8-0.4,1.2c0-0.3,0-0.5,0.4-0.8c0.1-0.1,0.4-0.2,0.6-0.2c0.1,0,0.2,0.1,0.3,0.1
	c0.1,0.1,0.3,0.2,0.4,0.2s0.1,0,0.1,0c0.1,0,0.2,0,0.2-0.1c0.3,0.3,0.9,1.2,1,1.7c0.1,0.6,0,1-0.3,1.4c0,0.1-0.3,0.3-0.6,0.3
	c-0.2,0-0.3-0.1-0.5-0.2c-0.1,0.5,0.2,0.8,0.7,0.8c0.1,0,0.2-0.1,0.3-0.1c-0.1,0.1-0.3,0.3-0.6,0.4c-0.2,0.1-0.3,0.1-0.4,0.1
	c-0.3,0-0.6-0.1-0.7-0.4c-0.5,0.6-0.3,1.5,0.5,1.6c-0.1,0.3-0.5,0.5-0.9,0.5s-0.8-0.2-1.1-0.6c-0.3-0.5,0.1-0.8,0.3-1
	c0.5-0.5,0.4-1,0.1-1.5c-0.5-0.7-1.9-1.8-2.4-2.6c-0.1,0.1-0.2,0.2-0.2,0.3c-0.5-0.4-1.1-1.2-1.3-1.8C8,9.8,8,9.9,7.9,10
	C7.2,9,5.8,6.6,5.4,5.7C4.5,6.1,4.5,7.3,4.8,8C5,8.7,5.4,9.3,6.2,10.3C6,10.2,4.3,8.5,4,8.3c-0.6,0.9-0.2,2.4,0.9,3
	c-0.3-0.2-0.9-0.4-1.4-0.4c-0.1,0-0.1,0-0.2,0c-0.1,0.9,0.7,1.5,1.2,1.9c-0.3,0-0.6-0.1-0.9-0.1c-0.2,0-0.4,0-0.6,0.1
	c0.1,0.6,0.7,1.4,1.7,1.7c-0.1,0-0.2,0-0.3,0c-0.5,0-1,0.1-1.3,0.3C3.2,15.4,4,16,4.9,16.1c-0.6,0.1-1.1,0.3-1.4,0.7
	c0.3,0.5,0.8,0.8,1.5,0.8c0.1,0,0.1,0,0.1,0c-0.2,0-0.4,0.1-0.6,0.3c-0.1,0-0.1,0-0.1,0V18c-0.1,0.1-0.1,0.1-0.1,0.2
	c-0.1,0.1-0.2,0.2-0.2,0.3c0,0.1,0.1,0.1,0.1,0.2c-0.1,0-0.1,0-0.1,0.1l-0.4-0.2c0,0,0,0.6,0.3,0.9c0.2,0.2,0.3,0.1,0.3,0.2L4.8,20
	c0,0.2,0.1,0.2,0.2,0.2c0.1,0,0.2,0,0.2,0c0,0.2,0.1,0.4,0.3,0.4c-0.1,0.1,0,0.2,0.2,0.3l1.8,4.4c0,0.2,0,0.4,0.2,0.5
	c-0.1,0.1-0.1,0.1-0.1,0.2h0.1c0,0,0.1,0,0.1,0.1c0,0.1-0.2,0.5,0.1,0.7c0,0.2,0.1,0.4,0.3,0.5c0,0.1,0.1,0.5,0.1,0.6
	c-0.1,0.2-0.4,0.5-0.4,0.8c0,0.2,0.1,0.2,0.3,0.3c-0.1,0.4,0.2,0.6,0.5,0.6c-0.1,0.3,0.2,0.4,0.4,0.4c0.1,0.2,0.2,0.2,0.4,0.3
	c-0.1,0.2,0,0.5,0.3,0.6c0,0.2,0.1,0.3,0.3,0.3c0.1,0.2,0.2,0.2,0.3,0.2h0.1c0.1,0,0.2-0.2,0.1-0.4c0.1,0,0-0.2,0-0.3
	c0.1-0.2,0-0.4-0.1-0.5c0-0.1-0.1-0.3-0.1-0.4c0.3-0.1,0.6-0.3,0.7-0.4c0.6-0.5,1.3-0.8,2.1-0.9c0.1,0,0.3,0,0.5,0
	c0.1,0,0.2,0,0.3,0c0.2,0,0.4,0,0.6,0c0.2,0,0.4,0,0.5-0.1c0.1,0,0.1-0.1,0.1-0.2c0-0.1-0.2-0.3-0.3-0.5c0,0-0.1-0.1-0.1-0.2
	c0.1,0,0.1,0,0.2,0c0.2,0,0.3-0.1,0.4-0.1c0.2-0.1,0.5-0.3,0.5-0.7c-0.1,0-0.3,0.1-0.5,0.1c-0.2,0-0.5-0.1-0.5-0.5
	c0-0.5,0.3-0.9,0.9-0.9c0.1,0,0.2,0,0.3,0c0.5,0.1,1.3,1.3,0.6,1.8c-0.3,0.2-0.9,0.5-0.8,1.1c0.2-0.3,0.4-0.4,0.8-0.4h0.1
	c-0.6,0.4-1.1,0.5-1.7,0.8c-0.6,0.4-1,0.9-1.4,0.9c-0.3,0-0.5-0.4-0.2-0.7h-0.1c-0.3,0-0.7,0.2-0.8,0.5c-0.1,0.5,0,0.8,0.3,1
	c-0.4,0.2-0.6,0.6-0.5,1.2c0.1,0.5,0.6,0.5,0.4,1.1c0.3-0.1,0.4-0.2,0.5-0.5c0.1-0.2,0.1-0.4,0.2-0.5c0,0.3,0.2,0.9,0.7,1.1
	c0.1,0,0.3,0.1,0.5,0.1c0.2,0,0.5-0.1,0.7-0.3c0.2,0.5,0.7,0.9,1.3,0.9c0.2,0,0.5-0.1,0.7-0.2c0.2,0.4,0.5,0.7,0.9,0.9
	c0.4-0.2,0.8-0.6,0.9-0.9c0.2,0.1,0.4,0.2,0.7,0.2c0.6,0,1.1-0.4,1.3-0.9c0.2,0.2,0.5,0.3,0.7,0.3c0.2,0,0.4,0,0.5-0.1
	c0.5-0.2,0.7-0.7,0.7-1.1c0.1,0.1,0.2,0.3,0.2,0.5c0.1,0.2,0.2,0.4,0.5,0.5c-0.2-0.6,0.3-0.6,0.4-1.1c0.2-0.6-0.1-1-0.5-1.2
	c0.3-0.2,0.5-0.5,0.3-1c-0.1-0.1-0.2-0.3-0.3-0.3c0,0,0.1,0,0.1,0c0.5,0.1,1.1,0.1,1.5,0.3c0.3,0.1,0.6,0.4,0.9,0.5
	c0.4,0,0.3,0.2,0.6,0.2c0.2,0,0.3-0.2,0.6-0.3c0.1,0,0.1,0,0.2,0c0.1,0,0.2,0,0.3,0c0.1,0,0.1,0,0.2,0c0.2-0.1,0.3-0.2,0.4-0.3
	c0.2-0.2,0.4-0.2,0.6-0.3c0.1-0.1,0.1-0.2,0.1-0.3c0.3-0.3,0.6-0.6,0.7-1c0.1,0,0.2-0.1,0.2-0.2c0-0.1,0.1-0.2,0.1-0.3
	c0-0.1,0-0.2-0.1-0.3c0-0.1-0.1-0.2-0.1-0.2c-0.1-0.8-0.7-1.4-1.4-1.6c0-0.1,0-0.1,0-0.1c0-0.1-0.2-0.3-0.2-0.4
	c0.1,0,0.3,0.2,0.4,0.3v-1c-0.1,0.1-0.3,0.3-0.4,0.3c0-0.1,0.2-0.3,0.3-0.4h-1c0.1,0.1,0.3,0.3,0.3,0.4c-0.1,0-0.3-0.2-0.4-0.3v1
	c0.1-0.1,0.3-0.3,0.4-0.3c0,0.1-0.2,0.3-0.3,0.4c-0.8,0.2-1.4,0.8-1.5,1.6c-0.1,0.1-0.1,0.1-0.1,0.2c0,0.1-0.1,0.2-0.1,0.3
	c0,0.1,0,0.2,0.1,0.3c0,0.1,0.1,0.2,0.2,0.2c0,0.1,0.1,0.2,0.1,0.3c-0.1,0.3-0.4,0.5-0.5,0.5c0,0-0.1,0-0.2,0
	c-0.6,0-1.2-0.2-1.7-0.4c-0.3-0.1-0.6-0.2-0.8-0.5c0,0-0.1-0.1-0.1-0.2c0-0.2,0-0.2,0-0.3c0,0.1,0.1,0.2,0.3,0.3
	c0.1,0,0.1-0.1,0.1-0.2c0.1,0.2,0.3,0.3,0.6,0.3c0.1,0,0.1,0,0.1,0c-0.2-0.1-0.3-0.6-0.2-0.9c0.2,0.2,0.4,0.3,0.7,0.3
	c0.3,0,0.6-0.2,0.7-0.6c-0.1,0.1-0.2,0.1-0.3,0.1c-0.2,0-0.4-0.2-0.4-0.3c-0.1-0.3,0.2-1-0.1-1.6c-0.2-0.4-0.5-0.7-1.2-0.8
	c0.1-0.1,0.1-0.2,0.1-0.3c-0.2,0.1-0.3,0.1-0.5,0.1c-0.4,0-0.7-0.1-0.9-0.5c0.1,0.1,0.2,0.1,0.4,0.1c-0.5-0.5-0.5-1.7-0.1-2.4
	l0.1-0.1c0.2,0.2,0.5,0.2,0.7,0.4c0.1,0,0.1,0,0.2-0.1c0,0,0,1,0.1,1.4c0.1,0.4,0.6,0.4,0.8,0.6c0.3-0.3,0.8-0.3,0.7-0.8
	c-0.1-0.6-0.2-1.1-0.2-1.4c0.2,0.3,0.5,1.5,0.6,1.9c0.2,0.5,0.7,0.3,1,0.5c0.2-0.4,0.7-0.5,0.5-1c0-0.1-0.8-1.7-0.9-2
	c0.3,0.4,1,1.8,1.2,2.2c0.2,0.4,0.7,0.2,1,0.3c0.1-0.3,0.5-0.6,0.2-1.1c-0.4-0.7-1.3-1.8-1.4-2c0.2,0.2,1.7,2,1.8,2.1
	c0.2,0.2,0.3,0.2,0.5,0.2c0.3,0,0.5-0.1,0.7-0.1c0-0.3,0.3-0.7-0.1-1.1c-0.3-0.3-1.1-0.9-1.3-1.1c0.6,0.4,1.2,1,1.6,1.1
	c0.2,0.1,0.3,0.1,0.4,0.1c0.4,0,0.6-0.2,0.8-0.3c-0.3-0.6,0-0.9-1.4-1.5c0.5,0.1,0.9,0.2,1.2,0.2c0.4,0,0.7-0.2,1-0.4
	c-0.2-0.4-0.6-0.8-1-0.9c0.1,0,0.1,0,0.1,0c0.7,0,1.2-0.4,1.5-0.8c-0.2-0.4-0.8-0.6-1.4-0.7c1-0.1,1.7-0.7,1.8-1.4
	c-0.4-0.2-0.8-0.3-1.3-0.3C31.5,14.7,31.4,14.7,31.3,14.7z M13.6,12.8L13.6,12.8c-0.1,0.1-0.1,0.1-0.2,0.2
	C13.5,13,13.6,13,13.6,12.8L13.6,12.8z M22.5,12.8L22.5,12.8L22.5,12.8c0,0.1,0.1,0.2,0.2,0.2C22.6,13,22.6,12.9,22.5,12.8z
	 M18.6,7.2c-0.2,0-0.4,0-0.6,0c-0.2,0-0.4,0-0.6,0c-0.4,0.4-1.4,1-2.4,1.2c0.6,0,1.5,0,1.7-0.2c0,0.4-0.8,0.8-1.3,0.9
	c0.1,0,0.2,0,0.3,0c0.3,0,0.6-0.1,0.8-0.2c-0.2,0.2-0.4,0.5-0.7,0.6c0.3,0.4,0.9,0.6,1.5,0.6c0.1,0,0.1,0,0.2,0
	c-0.1,0.2-0.4,0.3-0.7,0.3h-0.1c0.6,0.9,1.1,1.9,1.2,3.3c0.1-1.4,0.6-2.4,1.2-3.3H19c-0.3,0-0.5-0.1-0.7-0.3c0.1,0,0.1,0,0.2,0
	c0.6,0,1.2-0.3,1.5-0.6c-0.3-0.1-0.5-0.3-0.7-0.6c0.2,0.1,0.5,0.2,0.8,0.2c0.1,0,0.2,0,0.3,0c-0.5-0.1-1.3-0.5-1.3-0.9
	c0.3,0.1,1.3,0.2,1.9,0.2C20,8.2,19,7.6,18.6,7.2z M19,28.2c0.2,0.3,0.6,0.8,0.8,1.1c0.3,0.4,0.6,0.8,0.8,1.3c0.4,0,0.3-0.5,0.2-0.7
	C20.5,29.4,19.5,28.8,19,28.2z M13.8,22.8c0,0.1-0.1,0.1-0.1,0.1C13.7,23,13.7,22.9,13.8,22.8z M13.4,23c0.1,0,0.2,0,0.3-0.1
	c-0.2,0.2-0.4,0.4-0.8,0.4c-0.1,0-0.3,0-0.5-0.1c0,0.1,0,0.2,0.1,0.3c-0.7,0.1-1,0.4-1.2,0.8c-0.4,0.6,0,1.3-0.1,1.6
	c0,0.2-0.2,0.3-0.4,0.3c-0.1,0-0.2-0.1-0.3-0.1c0.1,0.4,0.4,0.6,0.7,0.6c0.3,0,0.6-0.1,0.7-0.3c0.1,0.3,0,0.7-0.2,0.9
	c0.1,0,0.1,0,0.1,0c0.2,0,0.5-0.1,0.6-0.3c0.1,0,0.1,0.1,0.1,0.2c0.1-0.1,0.2-0.2,0.3-0.3c0,0.1,0,0.3,0,0.5
	c-0.1,0.1-0.3,0.2-0.5,0.3c-0.4,0.2-1,0.4-1.4,0.5h-0.1c-0.3,0-0.8-0.2-0.9-0.6c0-0.3-0.2-0.4-0.4-0.4c-0.1,0-0.2,0-0.3,0.1
	c-0.1,0-0.1,0-0.2,0c-0.1,0-0.2,0-0.2,0.1c0,0-0.1-0.2-0.2-0.3c0-0.2,0-0.4-0.2-0.5C8.3,26.2,8.1,26.1,8,26c0-0.1,0-0.2,0.1-0.2
	c-0.1-0.1-0.2-0.1-0.2-0.1c0.1-0.2,0-0.4-0.2-0.5l-1.7-3.6c0.2,0,0.4,0.1,0.6,0.1s0.4-0.1,0.5-0.2c0.1-0.1,1.6-1.9,1.8-2.1
	c0,0.1-1,1.3-1.4,2c-0.3,0.5,0.1,0.8,0.2,1.1c0.3-0.1,0.8,0.1,1-0.3c0.2-0.4,0.9-1.8,1.2-2.2C9.8,20.4,9,22,9,22.1
	c-0.1,0.5,0.3,0.6,0.5,1c0.3-0.1,0.8,0,1-0.5c0.1-0.4,0.4-1.6,0.6-1.9c0,0.4-0.1,0.9-0.2,1.4c-0.1,0.5,0.4,0.5,0.7,0.8
	c0.3-0.2,0.7-0.1,0.8-0.6c0.1-0.4,0.1-1.4,0.1-1.4c0.1,0,0.1,0,0.2,0.1c0.2-0.1,0.6-0.1,0.7-0.4l0.1,0.1
	C13.9,21.4,13.9,22.5,13.4,23z M9.8,24.7L9.8,24.7c-0.2,0-0.2,0-0.3,0c0,0,0.1,0.1,0.1,0.2c0,0,0,0.1,0.1,0.1
	C9.7,24.9,9.7,24.8,9.8,24.7z M14.6,31c-0.2,0.4,0.1,0.7,0.5,0.7c0-0.2,0-0.2,0-0.4C14.9,31.3,14.7,31.2,14.6,31z"/>
</svg>
