<?xml version="1.0" encoding="utf-8"?>
<!-- Generator: Adobe Illustrator 21.0.0, SVG Export Plug-In . SVG Version: 6.00 Build 0)  -->
<svg version="1.1" id="Слой_1" xmlns="http://www.w3.org/2000/svg" xmlns:xlink="http://www.w3.org/1999/xlink" x="0px" y="0px"
	 viewBox="0 0 36 36" style="enable-background:new 0 0 36 36;" xml:space="preserve">
<style type="text/css">
	.st0{fill:#9858AE;}
	.st1{fill:#1A9777;}
	.st2{fill:#1794D4;}
	.st3{fill:#D94700;}
	.st4{fill:#F4A952;}
	.st5{fill:#50BCAB;}
	.st6{fill:#B29D12;}
	.st7{fill:#C8283C;}
	.st8{fill:#1094D2;}
	.st9{fill:#FFDD00;}
	.st10{fill-rule:evenodd;clip-rule:evenodd;fill:#1A9777;}
</style>
<path class="st4" d="M35.2,30.6c-0.6-0.9-1.4-1.6-1.8-2.1c0.1-2-0.1-9.5-4.6-14.3c-0.9-0.9-1.9-1.7-3-2.4c0-0.5,0-1.4-0.6-2.2
	c-0.3-0.4-0.7-0.7-1.2-1l4.5-5.1l-0.7-0.7C27.7,2.7,24.8,0,18,0S8.3,2.7,8.2,2.8L7.5,3.5L12,8.6c-0.5,0.3-0.9,0.6-1.2,1
	c-0.6,0.9-0.7,1.7-0.6,2.2c-1.1,0.6-2.1,1.4-3,2.4c-4.5,4.9-4.7,12.3-4.6,14.3c-0.5,0.4-1.2,1.2-1.8,2.1C0,32-0.1,32.3,0,32.6
	l0.1,0.7l0.6,0.2C6.4,35.2,12.2,36,18,36s11.6-0.8,17.3-2.5l0.6-0.2l0.1-0.7C36,32.3,36,31.9,35.2,30.6z M10.4,3.7C11.6,3,14,2,18,2
	c4,0,6.4,1.1,7.6,1.7L22,7.8c-0.4-0.1-0.9-0.2-1.4-0.3c0.1-0.6,0.4-1.6,1.1-2.3c0.2-0.2,0.2-0.5,0-0.7c-0.2-0.2-0.5-0.2-0.7,0
	c-1,0.9-1.3,2.1-1.5,2.9c-0.5,0-1-0.1-1.6-0.1c-0.5,0-1,0-1.5,0.1c-0.4-0.8-1.1-2.1-2.6-3.3c-0.2-0.2-0.5-0.1-0.7,0.1
	c-0.2,0.2-0.2,0.5,0.1,0.7c1.1,1,1.8,2,2.1,2.7c-0.5,0.1-0.9,0.2-1.4,0.3L10.4,3.7z M23.5,10.8c-0.2-0.1-0.3-0.1-0.5-0.2v-0.2
	C23.2,10.6,23.4,10.7,23.5,10.8z M22,9.9v0.5c-0.6-0.1-1.3-0.3-2-0.3V9.5C20.8,9.6,21.5,9.7,22,9.9z M19,9.4V10c-0.3,0-0.7,0-1,0
	s-0.7,0-1,0V9.4c0.3,0,0.6,0,1,0S18.7,9.4,19,9.4z M16,9.5v0.6c-0.7,0-1.4,0.2-2,0.3V9.9C14.5,9.7,15.2,9.6,16,9.5z M13,10.3v0.3
	c-0.2,0.1-0.3,0.2-0.5,0.2C12.6,10.7,12.8,10.5,13,10.3z M2.4,31.9c0-0.1,0.1-0.2,0.1-0.2c0.6-1,1.7-1.9,1.7-1.9l0.4-0.3V29
	c0-0.1-0.5-8.4,4.1-13.3c1.1-1.2,2.4-2,3.8-2.6c-0.2,0.4-0.3,0.7-0.3,0.8c-0.1,0.3,0,0.5,0.3,0.6c0.1,0,0.1,0,0.2,0
	c0.2,0,0.4-0.1,0.5-0.3c0.1-0.4,0.5-1.1,1-1.6c1.2-0.3,2.4-0.5,3.8-0.5c1.3,0,2.6,0.2,3.7,0.4c0.8,0.7,1.2,1.9,1.2,1.9
	c0.1,0.2,0.3,0.4,0.5,0.4h0.1c0.3-0.1,0.4-0.4,0.3-0.6c0,0-0.2-0.5-0.5-1.1c1.5,0.6,2.8,1.5,3.9,2.6c4.6,4.9,4.1,13.2,4.1,13.3v0.5
	l0.4,0.3c0.3,0.2,1.2,1.1,1.7,1.9c0.1,0.1,0.1,0.2,0.1,0.2C23.4,34.7,12.6,34.7,2.4,31.9z M19.5,16H15v7h-2v2h2v1h-2v2h2v2h2v-2h5
	v-2h-5v-1h2.5c2.5,0,4.5-2,4.5-4.5S22,16,19.5,16z M19.5,23H17v-5h2.5c1.4,0,2.5,1.1,2.5,2.5C22,21.9,20.9,23,19.5,23z"/>
</svg>
