<?xml version="1.0" encoding="utf-8"?>
<!-- Generator: Adobe Illustrator 21.0.0, SVG Export Plug-In . SVG Version: 6.00 Build 0)  -->
<svg version="1.1" id="Слой_1" xmlns="http://www.w3.org/2000/svg" xmlns:xlink="http://www.w3.org/1999/xlink" x="0px" y="0px"
	 viewBox="0 0 36 36" style="enable-background:new 0 0 36 36;" xml:space="preserve">
<style type="text/css">
	.st0{fill:#9858AE;}
	.st1{fill:#1A9777;}
	.st2{fill:#1794D4;}
	.st3{fill:#D94700;}
	.st4{fill:#F4A952;}
	.st5{fill:#50BCAB;}
	.st6{fill:#B29D12;}
	.st7{fill:#C8283C;}
	.st8{fill:#1094D2;}
	.st9{fill:#FFDD00;}
	.st10{fill-rule:evenodd;clip-rule:evenodd;fill:#1A9777;}
</style>
<path class="st4" d="M35,13.7L35,13.7l-2.2-8c-0.1-0.4-0.5-0.7-1-0.7H31V3c0-0.6-0.4-1-1-1s-1,0.4-1,1v2h-3V3c0-0.6-0.4-1-1-1h-3
	c-0.6,0-1,0.4-1,1v2h-8V3c0-0.6-0.4-1-1-1H6C5.4,2,5,2.4,5,3v2H4.2c-0.4,0-0.8,0.3-1,0.7L1,13.6l0.2,0.1H1c0,1.4,0.8,2.5,2,3V31H0v1
	h3h30h3v-1h-3V16.7C34.2,16.2,35,15.1,35,13.7z M7,4h4v1H7V4z M23,4h1v1h-1V4z M31,7l1.7,6h-2.9l-1.2-6H31z M3.1,14h2.4
	c-0.1,0.6-0.6,1-1.2,1S3.2,14.6,3.1,14z M11.5,7l-0.7,6H7.3l1.2-6H11.5z M19.5,7l0.3,6h-3.5l0.2-6H19.5z M7.6,14H10
	c-0.1,0.6-0.6,1-1.2,1S7.8,14.6,7.6,14z M12.2,14h2.4c-0.1,0.6-0.6,1-1.2,1S12.3,14.6,12.2,14z M16.8,14h2.4c-0.1,0.6-0.6,1-1.2,1
	S16.9,14.6,16.8,14z M21.3,14h2.4c-0.1,0.6-0.6,1-1.2,1S21.5,14.6,21.3,14z M25.9,14h2.4c-0.1,0.6-0.6,1-1.2,1S26.1,14.6,25.9,14z
	 M30.5,14h2.4c-0.1,0.6-0.6,1-1.2,1S30.6,14.6,30.5,14z M27.6,7l1.2,6h-3.5l-0.8-6h0.4H27.6z M22,7h1.5l0.8,6h-3.5l-0.3-6H22z
	 M15.3,13h-3.5l0.7-6h3L15.3,13z M6,7h1.4l-1.2,6H3.3L5,7H6z M5,16.9c0.6-0.1,1.1-0.4,1.6-0.9c0.6,0.6,1.4,0.9,2.3,0.9
	s1.7-0.4,2.3-0.9c0.6,0.6,1.4,0.9,2.3,0.9s1.7-0.4,2.3-0.9c0.6,0.6,1.4,0.9,2.3,0.9s1.7-0.4,2.3-0.9c0.6,0.6,1.4,0.9,2.3,0.9
	s1.7-0.4,2.3-0.9c0.6,0.6,1.4,0.9,2.3,0.9s1.7-0.4,2.3-0.9c0.4,0.4,1,0.7,1.6,0.9V27h-4v-8h-8h-2h-8v8h-4V16.9H5z M5,30v-2h4v2H5z
	 M11,30v-9h6v9H11z M19,30v-9h6v9H19z M27,30v-2h4v2H27z"/>
</svg>
