<?xml version="1.0" encoding="utf-8"?>
<!-- Generator: Adobe Illustrator 21.0.0, SVG Export Plug-In . SVG Version: 6.00 Build 0)  -->
<svg version="1.1" id="Слой_1" xmlns="http://www.w3.org/2000/svg" xmlns:xlink="http://www.w3.org/1999/xlink" x="0px" y="0px"
	 viewBox="0 0 36 36" style="enable-background:new 0 0 36 36;" xml:space="preserve">
<style type="text/css">
	.st0{fill:#9858AE;}
	.st1{fill:#1A9777;}
	.st2{fill:#1794D4;}
	.st3{fill:#D94700;}
	.st4{fill:#F4A952;}
	.st5{fill:#50BCAB;}
	.st6{fill:#B29D12;}
	.st7{fill:#C8283C;}
	.st8{fill:#1094D2;}
	.st9{fill:#FFDD00;}
	.st10{fill-rule:evenodd;clip-rule:evenodd;fill:#1A9777;}
</style>
<path class="st4" d="M33,4h-2V1c0-0.6-0.4-1-1-1c-0.6,0-1,0.4-1,1v3h-4V1c0-0.6-0.4-1-1-1c-0.6,0-1,0.4-1,1v3h-4V1c0-0.6-0.4-1-1-1
	c-0.6,0-1,0.4-1,1v3h-4V1c0-0.6-0.4-1-1-1c-0.6,0-1,0.4-1,1v3H7V1c0-0.6-0.4-1-1-1C5.4,0,5,0.4,5,1v3H3C1.3,4,0,5.3,0,7v26
	c0,1.7,1.3,3,3,3h30c1.7,0,3-1.3,3-3V7C36,5.3,34.7,4,33,4z M34,33c0,0.6-0.4,1-1,1H3c-0.6,0-1-0.4-1-1V7c0-0.6,0.4-1,1-1h30
	c0.6,0,1,0.4,1,1V33z M30.5,9h-25C5.2,9,5,9.2,5,9.5v21C5,30.8,5.2,31,5.5,31h25c0.3,0,0.5-0.2,0.5-0.5v-21C31,9.2,30.8,9,30.5,9z
	 M10,30H6v-4h4V30z M10,25H6v-4h4V25z M10,20H6v-4h4V20z M10,15H6v-3h4V15z M10,11H6v-1h4V11z M15,30h-4v-4h4V30z M15,25h-4v-4h4V25
	z M15,20h-4v-4h4V20z M15,15h-4v-3h4V15z M15,11h-4v-1h4V11z M20,30h-4v-4h4V30z M20,25h-4v-4h4V25z M20,20h-4v-4h4V20z M20,15h-4
	v-3h4V15z M20,11h-4v-1h4V11z M25,30h-4v-4h4V30z M25,25h-4v-4h4V25z M25,20h-4v-4h4V20z M25,15h-4v-3h4V15z M25,11h-4v-1h4V11z
	 M30,30h-4v-4h4V30z M30,25h-4v-4h4V25z M30,20h-4v-4h4V20z M30,15h-4v-3h4V15z M30,11h-4v-1h4V11z"/>
</svg>
