<?xml version="1.0" encoding="utf-8"?>
<!-- Generator: Adobe Illustrator 21.0.0, SVG Export Plug-In . SVG Version: 6.00 Build 0)  -->
<svg version="1.1" id="Слой_1" xmlns="http://www.w3.org/2000/svg" xmlns:xlink="http://www.w3.org/1999/xlink" x="0px" y="0px"
	 viewBox="0 0 36 36" style="enable-background:new 0 0 36 36;" xml:space="preserve">
<style type="text/css">
	.st0{fill:#9858AE;}
	.st1{fill:#1A9777;}
	.st2{fill:#1794D4;}
	.st3{fill:#D94700;}
	.st4{fill:#F4A952;}
	.st5{fill:#50BCAB;}
	.st6{fill:#B29D12;}
	.st7{fill:#C8283C;}
	.st8{fill:#1094D2;}
	.st9{fill:#FFDD00;}
	.st10{fill-rule:evenodd;clip-rule:evenodd;fill:#1A9777;}
</style>
<path class="st4" d="M15.5,17c0,0.8-0.7,1.5-1.5,1.5s-1.5-0.7-1.5-1.5c0-0.8,0.7-1.5,1.5-1.5S15.5,16.2,15.5,17z M22,15.5
	c-0.8,0-1.5,0.7-1.5,1.5c0,0.8,0.7,1.5,1.5,1.5s1.5-0.7,1.5-1.5C23.5,16.2,22.8,15.5,22,15.5z M36,36h-2c0-3.1-2.1-5.8-5.1-6.6
	l-4.7-1.3C22.4,29.3,20.3,30,18,30s-4.4-0.7-6.2-1.9l-4.7,1.3C4.1,30.2,2,32.9,2,36H0c0-3.9,2.7-7.5,6.5-8.5l3.4-0.9
	c-1.4-1.5-2.4-3.5-2.8-5.7C5.3,20.3,4,18.6,4,16.5c0-1.5,0.8-2.9,2-3.7V12C6,5.4,11.4,0,18,0c6.6,0,12,5.4,12,12v0.9
	c1.2,0.8,2,2.2,2,3.7c0,2-1.3,3.7-3.1,4.3c-0.3,2.2-1.4,4.2-2.8,5.7l3.4,0.9C33.3,28.6,36,32.1,36,36z M8,12h1v0.5v1.4v1
	c0,0.1,0.1,0.3,0.3,0.4s0.4,0,0.5,0c0,0,0.2-0.1,0.2-0.4v-2.7l12.7-5.3l3.3,5.5v2.5c0,0.2,0.1,0.4,0.2,0.4c0.1,0,0.3,0.1,0.5,0
	c0.2,0,0.3-0.2,0.3-0.4v-1v-1.4v-0.4l1-0.1c0-5.5-4.5-10-10-10S8,6.5,8,12z M26.8,19.9l0.1-0.8l0.8-0.1c1.3-0.2,2.2-1.3,2.2-2.5
	c0-1.2-0.9-2.2-2-2.4v0.8c0,0.5-0.3,1-0.8,1.3c-0.2,0.1-0.5,0.2-0.7,0.2c-0.3,0-0.6-0.1-0.8-0.2c-0.4-0.3-0.7-0.8-0.7-1.3v-2.2
	l-2.7-4.5l-11.3,4.7v2c0,0.5-0.3,1-0.7,1.3c-0.5,0.3-1,0.3-1.5,0.1s-0.8-0.7-0.8-1.3v-0.8c-1.1,0.2-2,1.2-2,2.4c0,1.3,1,2.3,2.2,2.5
	l0.8,0.1L9,20c0.5,4.6,4.1,8,8.8,8C22.5,28,26.4,24.5,26.8,19.9z"/>
</svg>
